<svg width="32" height="32" viewBox="0 0 32 32" fill="none" xmlns="http://www.w3.org/2000/svg">
  <!-- Dark outline layer (rendered first, behind the cyan) -->
  <g stroke="#0A0E13" fill="none">
    <ellipse cx="16" cy="19" rx="10" ry="9" stroke-width="3.5"/>
    <ellipse cx="16" cy="19" rx="6.5" ry="5.8" stroke-width="3"/>
    <ellipse cx="16" cy="19" rx="3.2" ry="2.8" stroke-width="2.5"/>
    <path d="M16 10 Q16 5 13 3" stroke-width="3.5" stroke-linecap="round"/>
    <path d="M16 10 Q16 6 19 4.5" stroke-width="3.5" stroke-linecap="round"/>
    <line x1="16" y1="28" x2="13" y2="30.5" stroke-width="2.5" stroke-linecap="round"/>
    <line x1="16" y1="28" x2="19" y2="30.5" stroke-width="2.5" stroke-linecap="round"/>
  </g>
  <g fill="#0A0E13">
    <circle cx="16" cy="11" r="3.5"/>
    <circle cx="16" cy="28" r="2.8"/>
  </g>
  <!-- Cyan foreground -->
  <ellipse cx="16" cy="19" rx="10" ry="9" stroke="#00E5FF" stroke-width="1.4" fill="none"/>
  <ellipse cx="16" cy="19" rx="6.5" ry="5.8" stroke="#00E5FF" stroke-width="1.0" fill="none" opacity="0.7"/>
  <ellipse cx="16" cy="19" rx="3.2" ry="2.8" stroke="#00E5FF" stroke-width="0.8" fill="none" opacity="0.5"/>
  <path d="M16 10 Q16 5 13 3" stroke="#00E5FF" stroke-width="1.4" stroke-linecap="round" fill="none"/>
  <path d="M16 10 Q16 6 19 4.5" stroke="#00E5FF" stroke-width="1.4" stroke-linecap="round" fill="none"/>
  <circle cx="16" cy="11" r="1.8" fill="#00E5FF"/>
  <circle cx="16" cy="28" r="1.2" fill="#00E5FF" opacity="0.6"/>
  <line x1="16" y1="28" x2="13" y2="30.5" stroke="#00E5FF" stroke-width="0.8" stroke-linecap="round" opacity="0.5"/>
  <line x1="16" y1="28" x2="19" y2="30.5" stroke="#00E5FF" stroke-width="0.8" stroke-linecap="round" opacity="0.5"/>
</svg>
